{
  "source": "C:\\Users\\Peter\\Desktop\\stuff\\MIUN\\quantitative_research\\video_compression\\videos\\BVI-HD\\BVI-HD_CDVL_videos\\ORIG\\Fountain_1920x1080_50fps.mp4",
  "output": "C:\\Users\\Peter\\Desktop\\stuff\\MIUN\\quantitative_research\\video_compression\\compressed_videos\\BVI-HD\\h264\\2\\Fountain_1920x1080_50fps_h264.mp4",
  "codec": "h264",
  "ok": "Input #0, mov,mp4,m4a,3gp,3g2,mj2, from 'C:\\Users\\Peter\\Desktop\\stuff\\MIUN\\quantitative_research\\video_compression\\videos\\BVI-HD\\BVI-HD_CDVL_videos\\ORIG\\Fountain_1920x1080_50fps.mp4':\n  Metadata:\n    major_brand     : isom\n    minor_version   : 512\n    compatible_brands: isomiso2avc1mp41\n    encoder         : Lavf54.28.101\n  Duration: 00:00:05.00, start: 0.000000, bitrate: 603457 kb/s\n  Stream #0:0[0x1](und): Video: h264 (High 4:4:4 Predictive) (avc1 / 0x31637661), yuv420p(progressive), 1920x1080, 603453 kb/s, 50 fps, 50 tbr, 50 tbn (default)\n    Metadata:\n      handler_name    : VideoHandler\n      vendor_id       : [0][0][0][0]\n[out#0/mp4 @ 000001752c1a9bc0] Codec AVOption b:a (set bitrate (in bits/s)) has not been used for any stream. The most likely reason is either wrong type (e.g. a video option with no video streams) or that it is a private option of some decoder which was not actually used for any stream.\nStream mapping:\n  Stream #0:0 -> #0:0 (h264 (native) -> h264 (libx264))\nPress [q] to stop, [?] for help\n[libx264 @ 000001752c855980] using cpu capabilities: MMX2 SSE2Fast SSSE3 SSE4.2 AVX FMA3 BMI2 AVX2\n[libx264 @ 000001752c855980] profile High, level 5.0, 4:2:0, 8-bit\n[libx264 @ 000001752c855980] 264 - core 165 r3222 b35605a - H.264/MPEG-4 AVC codec - Copyleft 2003-2025 - http://www.videolan.org/x264.html - options: cabac=1 ref=5 deblock=1:0:0 analyse=0x3:0x113 me=hex subme=8 psy=1 psy_rd=1.00:0.00 mixed_ref=1 me_range=16 chroma_me=1 trellis=2 8x8dct=1 cqm=0 deadzone=21,11 fast_pskip=1 chroma_qp_offset=-2 threads=18 lookahead_threads=3 sliced_threads=0 nr=0 decimate=1 interlaced=0 bluray_compat=0 constrained_intra=0 bframes=3 b_pyramid=2 b_adapt=1 b_bias=0 direct=3 weightb=1 open_gop=0 weightp=2 keyint=250 keyint_min=25 scenecut=40 intra_refresh=0 rc_lookahead=50 rc=cbr mbtree=1 bitrate=2000 ratetol=1.0 qcomp=0.60 qpmin=0 qpmax=69 qpstep=4 vbv_maxrate=2000 vbv_bufsize=2000 nal_hrd=none filler=0 ip_ratio=1.40 aq=1:1.00\nOutput #0, mp4, to 'C:\\Users\\Peter\\Desktop\\stuff\\MIUN\\quantitative_research\\video_compression\\compressed_videos\\BVI-HD\\h264\\2\\Fountain_1920x1080_50fps_h264.mp4':\n  Metadata:\n    major_brand     : isom\n    minor_version   : 512\n    compatible_brands: isomiso2avc1mp41\n    encoder         : Lavf62.3.100\n  Stream #0:0(und): Video: h264 (avc1 / 0x31637661), yuv420p(tv, progressive), 1920x1080, q=2-31, 2000 kb/s, 50 fps, 12800 tbn (default)\n    Metadata:\n      encoder         : Lavc62.11.100 libx264\n      handler_name    : VideoHandler\n      vendor_id       : [0][0][0][0]\n    Side data:\n      cpb: bitrate max/min/avg: 2000000/0/2000000 buffer size: 2000000 vbv_delay: N/A\nframe=    0 fps=0.0 q=0.0 size=       0KiB time=N/A bitrate=N/A speed=N/A elapsed=0:00:00.52    \nframe=    0 fps=0.0 q=0.0 size=       0KiB time=N/A bitrate=N/A speed=N/A elapsed=0:00:01.08    \nframe=    0 fps=0.0 q=0.0 size=       0KiB time=N/A bitrate=N/A speed=N/A elapsed=0:00:01.63    \nframe=   12 fps=5.5 q=44.0 size=       0KiB time=00:00:00.20 bitrate=   1.9kbits/s speed=0.0915x elapsed=0:00:02.18    \nframe=   36 fps= 13 q=43.0 size=       0KiB time=00:00:00.68 bitrate=   0.6kbits/s speed=0.249x elapsed=0:00:02.73    \nframe=   52 fps= 16 q=43.0 size=       0KiB time=00:00:00.92 bitrate=   0.4kbits/s speed=0.275x elapsed=0:00:03.34    \nframe=   72 fps= 18 q=43.0 size=       0KiB time=00:00:01.40 bitrate=   0.3kbits/s speed=0.354x elapsed=0:00:03.95    \nframe=   96 fps= 21 q=43.0 size=     256KiB time=00:00:01.80 bitrate=1165.3kbits/s speed= 0.4x elapsed=0:00:04.50    \nframe=  116 fps= 23 q=43.0 size=     256KiB time=00:00:02.20 bitrate= 953.4kbits/s speed=0.432x elapsed=0:00:05.09    \nframe=  133 fps= 23 q=43.0 size=     256KiB time=00:00:02.62 bitrate= 800.6kbits/s speed=0.453x elapsed=0:00:05.78    \nframe=  134 fps= 21 q=43.0 size=     256KiB time=00:00:02.64 bitrate= 794.5kbits/s speed=0.41x elapsed=0:00:06.44    \nframe=  155 fps= 22 q=43.0 size=     512KiB time=00:00:02.98 bitrate=1407.6kbits/s speed=0.423x elapsed=0:00:07.03    \nframe=  183 fps= 24 q=43.0 size=     512KiB time=00:00:03.54 bitrate=1184.9kbits/s speed=0.463x elapsed=0:00:07.63    \nframe=  213 fps= 26 q=42.0 size=     512KiB time=00:00:04.22 bitrate= 994.0kbits/s speed=0.515x elapsed=0:00:08.18    \n[mp4 @ 000001752c1ba980] Starting second pass: moving the moov atom to the beginning of the file\n[out#0/mp4 @ 000001752c1a9bc0] video:970KiB audio:0KiB subtitle:0KiB other streams:0KiB global headers:0KiB muxing overhead: 0.387425%\nframe=  250 fps= 29 q=-1.0 Lsize=     973KiB time=00:00:04.96 bitrate=1607.8kbits/s speed=0.568x elapsed=0:00:08.73    \n[libx264 @ 000001752c855980] frame I:2     Avg QP:41.81  size: 18104\n[libx264 @ 000001752c855980] frame P:64    Avg QP:42.56  size:  6542\n[libx264 @ 000001752c855980] frame B:184   Avg QP:45.09  size:  2920\n[libx264 @ 000001752c855980] consecutive B-frames:  1.6%  0.8%  0.0% 97.6%\n[libx264 @ 000001752c855980] mb I  I16..4: 52.4% 46.1%  1.6%\n[libx264 @ 000001752c855980] mb P  I16..4:  6.3%  1.2%  0.0%  P16..4: 28.4%  1.0%  2.8%  0.0%  0.0%    skip:60.4%\n[libx264 @ 000001752c855980] mb B  I16..4:  0.2%  0.1%  0.0%  B16..8: 36.3%  0.2%  0.0%  direct: 0.3%  skip:63.0%  L0:42.2% L1:57.6% BI: 0.2%\n[libx264 @ 000001752c855980] 8x8 transform intra:24.7% inter:64.9%\n[libx264 @ 000001752c855980] direct mvs  spatial:94.6% temporal:5.4%\n[libx264 @ 000001752c855980] coded y,uvDC,uvAC intra: 7.2% 16.7% 1.3% inter: 1.5% 3.2% 0.0%\n[libx264 @ 000001752c855980] i16 v,h,dc,p: 42% 24%  4% 30%\n[libx264 @ 000001752c855980] i8 v,h,dc,ddl,ddr,vr,hd,vl,hu:  6%  3% 52%  6%  9%  7%  6%  5%  6%\n[libx264 @ 000001752c855980] i4 v,h,dc,ddl,ddr,vr,hd,vl,hu:  7%  5%  7% 15% 17% 12% 12% 10% 14%\n[libx264 @ 000001752c855980] i8c dc,h,v,p: 77% 16%  5%  2%\n[libx264 @ 000001752c855980] Weighted P-Frames: Y:0.0% UV:0.0%\n[libx264 @ 000001752c855980] ref P L0: 45.6%  6.3% 24.7% 10.6% 12.7%  0.1%\n[libx264 @ 000001752c855980] ref B L0: 68.6% 19.6%  9.4%  2.4%\n[libx264 @ 000001752c855980] ref B L1: 89.6% 10.4%\n[libx264 @ 000001752c855980] kb/s:1587.53\n",
  "seconds": 9.794777870178223,
  "probe_out": {}
}